<svg xmlns="http://www.w3.org/2000/svg" viewBox="0 0 39.45 37.35"><defs><style>.cls-1{fill:#fff;}.cls-2{fill:#00a2ff;}.cls-3{fill:#ff644e;}</style></defs><title>Asset 24</title><g id="Layer_2" data-name="Layer 2"><g id="Layer_1-2" data-name="Layer 1"><path class="cls-1" d="M27.33,26q0,5.53-3.85,8.44T12,37.35a36.62,36.62,0,0,1-6.71-.53A26.54,26.54,0,0,1,.06,35.26V27.13a34.36,34.36,0,0,0,6.18,2.16,24.92,24.92,0,0,0,6,.87c3.56,0,5.35-1,5.35-3.09a2.62,2.62,0,0,0-.71-1.89,10.28,10.28,0,0,0-2.45-1.64q-1.74-.91-4.64-2.14a29.64,29.64,0,0,1-6.11-3.22,9.12,9.12,0,0,1-2.83-3.4A11.12,11.12,0,0,1,0,10.05,8.55,8.55,0,0,1,3.72,2.63Q7.44,0,14.28,0A29.94,29.94,0,0,1,26.94,2.84L24,9.93C22.17,9.15,20.49,8.52,18.92,8a16,16,0,0,0-4.8-.74q-4.36,0-4.36,2.36a2.75,2.75,0,0,0,1.41,2.28,37.55,37.55,0,0,0,6.14,2.87A28.51,28.51,0,0,1,23.49,18a9.43,9.43,0,0,1,2.9,3.42A10.39,10.39,0,0,1,27.33,26Z"/><circle class="cls-2" cx="34.74" cy="5.36" r="4.71"/><circle class="cls-2" cx="34.74" cy="18.82" r="4.71"/><circle class="cls-3" cx="34.74" cy="31.94" r="4.71"/></g></g></svg>