<svg xmlns="http://www.w3.org/2000/svg" viewBox="0 0 241 241"><defs><style>.cls-1{fill:#00a2ff;}.cls-2{fill:#663091;}.cls-3{fill:#ff644e;}</style></defs><title>Asset 26</title><g id="Layer_2" data-name="Layer 2"><g id="Layer_1-2" data-name="Layer 1"><path class="cls-1" d="M161,161A80.5,80.5,0,1,1,80,80c0,.16,0,.33,0,.49A80.5,80.5,0,0,0,160.5,161Z"/><path class="cls-2" d="M161,160.5c0,.16,0,.33,0,.49h-.49A80.5,80.5,0,0,1,80,80.5c0-.16,0-.33,0-.49h.49A80.5,80.5,0,0,1,161,160.5Z"/><path class="cls-3" d="M241,80.5A80.49,80.49,0,0,1,161,161c0-.16,0-.33,0-.49A80.5,80.5,0,0,0,80.5,80H80a80.5,80.5,0,0,1,161,.49Z"/></g></g></svg>